<svg width="441" height="441" viewBox="0 0 441 441" fill="none" xmlns="http://www.w3.org/2000/svg">
<path d="M353.133 187.088C301.87 181.213 247.94 216.997 237.794 288.563C237.44 291.058 237.143 293.605 236.908 296.179H233.884C238.249 247.639 258.338 213.957 270.366 191.556C285.957 162.52 273.302 133.915 267.141 121.116C260.151 106.597 228.487 47.9148 220.424 28.02C212.36 47.9148 180.932 106.597 173.943 121.116C167.779 133.915 155.126 162.52 170.717 191.556C182.664 213.804 202.857 247.859 207.544 296.179H204.092C203.856 293.604 203.56 291.058 203.206 288.563C193.059 216.996 139.129 181.213 87.8674 187.088C30.5341 193.659 -0.237254 284.291 88.4011 306.188C73.9838 279.484 96.4097 231.416 148.208 258.655C165.054 267.515 176.788 281.668 181.641 296.179H172.964C164.777 296.179 158.141 300.988 158.141 306.922C158.141 312.857 164.777 317.666 172.964 317.666H183.527C182.663 322.346 180.884 326.775 178.11 330.755C165.827 348.38 124.688 338.767 147.649 300.313C108.843 295.205 98.5305 331.824 109.743 351.585C122.067 376.78 175.895 384.332 196.264 348.38C201.149 339.758 203.601 328.958 204.393 317.666H208.551C208.516 326.203 207.981 335.127 206.84 344.45C193.232 353.217 198.537 372.136 181.301 383.445C192.128 383.731 200.961 381.607 203.811 377.618C203.811 389.187 214.159 398.94 220.905 412.98C227.171 398.861 237.268 387.05 237.268 377.618C240.118 381.607 248.95 383.731 259.778 383.445C243.975 373.749 250.204 355.985 234.749 343.296C233.657 334.371 233.127 325.84 233.04 317.666H236.603C237.394 328.958 239.849 339.758 244.732 348.38C265.102 384.331 318.93 376.78 331.253 351.585C342.467 331.825 332.155 295.205 293.348 300.313C316.31 338.767 275.17 348.38 262.887 330.755C260.114 326.775 258.335 322.346 257.471 317.666H268.847C277.033 317.666 283.67 312.856 283.67 306.922C283.67 300.987 277.033 296.179 268.847 296.179H259.355C264.21 281.668 275.943 267.515 292.789 258.655C344.587 231.416 367.013 279.484 352.596 306.188C441.238 284.292 410.466 193.66 353.133 187.088Z" fill="url(#paint0_linear_2037_377)"/>
<defs>
<linearGradient id="paint0_linear_2037_377" x1="220.5" y1="28.02" x2="220.5" y2="412.98" gradientUnits="userSpaceOnUse">
<stop stop-color="#FDFEFF"/>
<stop offset="1" stop-color="#009AEA"/>
</linearGradient>
</defs>
</svg>
