<svg width="441" height="441" viewBox="0 0 441 441" fill="none" xmlns="http://www.w3.org/2000/svg">
<rect width="441" height="441" rx="24" fill="#1F344A"/>
<path d="M331.027 192.657C288.308 187.761 243.367 217.581 234.912 277.219C234.617 279.298 234.37 281.421 234.173 283.566H231.654C235.29 243.116 252.032 215.048 262.055 196.38C275.048 172.183 264.502 148.346 259.368 137.68C253.543 125.581 227.156 76.679 220.436 60.1C213.717 76.679 187.527 125.581 181.702 137.68C176.566 148.346 166.021 172.183 179.014 196.38C188.97 214.92 205.797 243.299 209.703 283.566H206.827C206.63 281.42 206.383 279.298 206.088 277.219C197.632 217.58 152.691 187.761 109.973 192.657C62.1951 198.132 36.5523 273.659 110.418 291.907C98.4032 269.654 117.091 229.597 160.257 252.296C174.295 259.679 184.073 271.473 188.118 283.566H180.886C174.065 283.566 168.534 287.574 168.534 292.519C168.534 297.464 174.065 301.472 180.886 301.472H189.689C188.969 305.371 187.487 309.063 185.175 312.379C174.939 327.067 140.657 319.055 159.791 287.011C127.452 282.754 118.859 313.27 128.203 329.738C138.472 350.734 183.329 357.027 200.304 327.067C204.374 319.881 206.418 310.882 207.078 301.472H210.543C210.513 308.586 210.067 316.022 209.117 323.792C197.777 331.097 202.197 346.863 187.835 356.288C196.857 356.526 204.217 354.756 206.593 351.431C206.593 361.073 215.216 369.2 220.837 380.9C226.059 369.134 234.474 359.291 234.474 351.431C236.848 354.756 244.209 356.526 253.232 356.288C240.062 348.207 245.253 333.404 232.374 322.83C231.464 315.393 231.022 308.283 230.95 301.472H233.919C234.579 310.882 236.624 319.881 240.694 327.067C257.668 357.026 302.525 350.734 312.794 329.738C322.139 313.271 313.546 282.754 281.207 287.011C300.342 319.055 266.059 327.067 255.822 312.379C253.512 309.063 252.029 305.371 251.309 301.472H260.789C267.611 301.472 273.141 297.463 273.141 292.519C273.141 287.573 267.611 283.566 260.789 283.566H252.879C256.925 271.473 266.702 259.679 280.74 252.296C323.906 229.597 342.594 269.654 330.58 291.907C404.449 273.66 378.805 198.133 331.027 192.657Z" fill="url(#paint0_linear_2037_377)"/>
<defs>
<linearGradient id="paint0_linear_2037_377" x1="220.5" y1="60.1" x2="220.5" y2="380.9" gradientUnits="userSpaceOnUse">
<stop stop-color="#FDFEFF"/>
<stop offset="1" stop-color="#009AEA"/>
</linearGradient>
</defs>
</svg>
