<svg xmlns="http://www.w3.org/2000/svg" width="118" height="40" fill="none"><path fill="#1d6083" fill-rule="evenodd" d="m81.86 32.354.484.584c-1.29.04-16.11-12.065-15.997-10.474.569 7.98 1.433 7.816 1.972 15.833.116 1.737-17.396-18.363-18.84-20.02-.426-.49-4.398-5.048-5.418-6.02-.957-.914-.169.687 3.664 15.158.586 2.213-8.666-6.89-9.906-6.339-.717.319-31.608 15.656-31.781 15.749-.253.136-10.838 5.836-3.384 1.19C7.102 35.241 40.77 8.324 42.25 7.416c.766-.471 7.492 6.507 8.317 6.48.585-.02 18.331-12.729 19.909-13.859 1.093-.783 11.292 10.57 15.734 14.625.499.455 4.505-5.386 5.607-6.656.486-.56 1.468.914 15.227 18.068 4.971 6.198 13.97 16.69 9.828 12.716-11.859-11.374-12.275-10.85-23.985-22.366-3.532-3.474 10.925 15.162 12.528 16.846 2.594 2.725-.942-.283-3.867-2.632C74.838 9.189 74.9 9.144 72.539 7.33c-.984-.756-.215.658 3.043 12.045.514 1.794-12.391-8.622-9.09-5.04 7.032 7.633 10.162 12.574 15.367 18.019" clip-rule="evenodd"></path></svg>