<svg xmlns="http://www.w3.org/2000/svg" width="441" height="441" fill="none"><path fill="url(#a)" d="M353.133 187.088c-51.263-5.875-105.193 29.909-115.339 101.475a153.916 153.916 0 0 0-.886 7.616h-3.024c4.365-48.54 24.454-82.222 36.482-104.623 15.591-29.036 2.936-57.641-3.225-70.44-6.99-14.519-38.654-73.201-46.717-93.096-8.064 19.895-39.492 78.577-46.481 93.096-6.164 12.799-18.817 41.404-3.226 70.44 11.947 22.248 32.14 56.303 36.827 104.623h-3.452a154.984 154.984 0 0 0-.886-7.616c-10.147-71.567-64.077-107.35-115.339-101.475-57.333 6.571-88.104 97.203.534 119.1-14.417-26.704 8.009-74.772 59.807-47.533 16.846 8.86 28.58 23.013 33.433 37.524h-8.677c-8.187 0-14.823 4.809-14.823 10.743 0 5.935 6.636 10.744 14.823 10.744h10.563c-.864 4.68-2.643 9.109-5.417 13.089-12.283 17.625-53.422 8.012-30.461-30.442-38.806-5.108-49.118 31.511-37.906 51.272 12.324 25.195 66.152 32.747 86.521-3.205 4.885-8.622 7.337-19.422 8.129-30.714h4.158a227.947 227.947 0 0 1-1.711 26.784c-13.608 8.767-8.303 27.686-25.539 38.995 10.827.286 19.66-1.838 22.51-5.827 0 11.569 10.348 21.322 17.094 35.362 6.266-14.119 16.363-25.93 16.363-35.362 2.85 3.989 11.682 6.113 22.51 5.827-15.803-9.696-9.574-27.46-25.029-40.149a230.88 230.88 0 0 1-1.709-25.63h3.563c.791 11.292 3.246 22.092 8.129 30.714 20.37 35.951 74.198 28.4 86.521 3.205 11.214-19.76.902-56.38-37.905-51.272 22.962 38.454-18.178 48.067-30.461 30.442-2.773-3.98-4.552-8.409-5.416-13.089h11.376c8.186 0 14.823-4.81 14.823-10.744 0-5.935-6.637-10.743-14.823-10.743h-9.492c4.855-14.511 16.588-28.664 33.434-37.524 51.798-27.239 74.224 20.829 59.807 47.533 88.642-21.896 57.87-112.528.537-119.1Z"/><defs><linearGradient id="a" x1="220.5" x2="220.5" y1="28.02" y2="412.98" gradientUnits="userSpaceOnUse"><stop stop-color="#FDFEFF"/><stop offset="1" stop-color="#009AEA"/></linearGradient></defs></svg>