<svg xmlns="http://www.w3.org/2000/svg" width="441" height="441" fill="none"><rect width="441" height="441" fill="#1F344A" rx="24"/><path fill="url(#a)" d="M331.027 192.657c-42.719-4.896-87.66 24.924-96.115 84.562a129.666 129.666 0 0 0-.739 6.347h-2.519c3.636-40.45 20.378-68.518 30.401-87.186 12.993-24.197 2.447-48.034-2.687-58.7-5.825-12.099-32.212-61.001-38.932-77.58-6.719 16.579-32.909 65.481-38.734 77.58-5.136 10.666-15.681 34.503-2.688 58.7 9.956 18.54 26.783 46.919 30.689 87.186h-2.876a129.523 129.523 0 0 0-.739-6.347c-8.456-59.639-53.397-89.458-96.115-84.562-47.778 5.475-73.42 81.002.445 99.25-12.015-22.253 6.673-62.31 49.839-39.611 14.038 7.383 23.816 19.177 27.861 31.27h-7.232c-6.821 0-12.352 4.008-12.352 8.953 0 4.945 5.531 8.953 12.352 8.953h8.803c-.72 3.899-2.202 7.591-4.514 10.907-10.236 14.688-44.518 6.676-25.384-25.368-32.339-4.257-40.932 26.259-31.588 42.727 10.269 20.996 55.126 27.289 72.101-2.671 4.07-7.186 6.114-16.185 6.774-25.595h3.465a190.33 190.33 0 0 1-1.426 22.32c-11.34 7.305-6.92 23.071-21.282 32.496 9.022.238 16.382-1.532 18.758-4.857 0 9.642 8.623 17.769 14.244 29.469 5.222-11.766 13.637-21.609 13.637-29.469 2.374 3.325 9.735 5.095 18.758 4.857-13.17-8.081-7.979-22.884-20.858-33.458a192.275 192.275 0 0 1-1.424-21.358h2.969c.66 9.41 2.705 18.409 6.775 25.595 16.974 29.959 61.831 23.667 72.1 2.671 9.345-16.467.752-46.984-31.587-42.727 19.135 32.044-15.148 40.056-25.385 25.368-2.31-3.316-3.793-7.008-4.513-10.907h9.48c6.822 0 12.352-4.009 12.352-8.953 0-4.946-5.53-8.953-12.352-8.953h-7.91c4.046-12.093 13.823-23.887 27.861-31.27 43.166-22.699 61.854 17.358 49.84 39.611 73.869-18.247 48.225-93.774.447-99.25Z"/><defs><linearGradient id="a" x1="220.5" x2="220.5" y1="60.1" y2="380.9" gradientUnits="userSpaceOnUse"><stop stop-color="#FDFEFF"/><stop offset="1" stop-color="#009AEA"/></linearGradient></defs></svg>