<?xml version="1.0" encoding="UTF-8" standalone="no"?>
<!DOCTYPE svg PUBLIC "-//W3C//DTD SVG 1.1//EN" "http://www.w3.org/Graphics/SVG/1.1/DTD/svg11.dtd">
<svg width="100%" height="100%" viewBox="0 0 1227 415" version="1.1" xmlns="http://www.w3.org/2000/svg" xmlns:xlink="http://www.w3.org/1999/xlink" xml:space="preserve" xmlns:serif="http://www.serif.com/" style="fill-rule:evenodd;clip-rule:evenodd;stroke-linejoin:round;stroke-miterlimit:2;">
    <g transform="matrix(3.219727,0,0,3.219727,-1027.759006,-5.941984)">
        <path d="M583.577,106.48C584.098,107.109 584.62,107.738 585.142,108.368C580.979,108.496 533.114,69.35 533.48,74.497C535.316,100.306 538.109,99.774 539.848,125.701C540.224,131.319 483.668,66.315 479.002,60.953C477.628,59.373 464.8,44.629 461.507,41.485C458.415,38.531 460.961,43.707 473.338,90.508C475.231,97.666 445.35,68.224 441.347,70.007C439.032,71.038 339.266,120.639 338.708,120.939C337.892,121.379 303.705,139.813 327.78,124.786C342.145,115.82 450.878,28.771 455.654,25.832C458.127,24.309 479.85,46.877 482.514,46.789C484.403,46.727 541.716,5.624 546.811,1.97C550.342,-0.562 583.278,36.152 597.626,49.268C599.236,50.74 612.174,31.847 615.733,27.742C617.302,25.932 620.476,30.697 664.909,86.174C680.963,106.217 710.027,140.149 696.649,127.299C658.352,90.515 657.007,92.208 619.189,54.966C607.781,43.731 654.471,103.999 659.649,109.445C668.028,118.258 656.606,108.531 647.16,100.934C560.902,31.566 561.103,31.417 553.477,25.552C550.298,23.108 552.783,27.68 563.305,64.505C564.963,70.307 523.286,36.623 533.947,48.209C556.66,72.892 566.767,88.871 583.577,106.48Z" style="fill:white;fill-opacity:1;"/>
    </g>
</svg>
