<svg width="399" height="135" viewBox="0 0 399 135" fill="none" xmlns="http://www.w3.org/2000/svg">
<g clip-path="url(#clip0_2131_738)">
<path fill-rule="evenodd" clip-rule="evenodd" d="M276.796 108.95C277.341 109.605 277.888 110.26 278.434 110.916C274.076 111.049 223.961 70.2887 224.344 75.648C226.267 102.522 229.191 101.968 231.012 128.964C231.405 134.814 172.191 67.1286 167.306 61.5454C165.867 59.9003 152.436 44.5481 148.988 41.2745C145.751 38.1986 148.417 43.5881 161.375 92.3194C163.357 99.7726 132.072 69.1163 127.881 70.9728C125.457 72.0464 21.0019 123.693 20.4176 124.006C19.5633 124.464 -16.2306 143.658 8.976 128.011C24.0162 118.675 137.86 28.0361 142.86 24.9759C145.45 23.39 168.194 46.8889 170.983 46.7972C172.961 46.7327 232.967 3.93439 238.302 0.12968C241.999 -2.50675 276.483 35.7215 291.505 49.3785C293.191 50.9112 306.737 31.239 310.463 26.9646C312.106 25.08 315.429 30.0415 361.951 87.8067C378.759 108.676 409.189 144.008 395.182 130.628C355.085 92.3267 353.677 94.0895 314.082 55.3115C302.138 43.6131 351.022 106.367 356.443 112.037C365.216 121.214 353.257 111.086 343.367 103.175C253.055 30.9464 253.266 30.7912 245.281 24.6843C241.953 22.1395 244.555 26.9001 255.571 65.2439C257.307 71.2852 213.671 36.2119 224.833 48.2758C248.614 73.9768 259.196 90.6149 276.796 108.95Z" fill="white"/>
</g>
<defs>
<clipPath id="clip0_2131_738">
<rect width="399" height="134.698" fill="white"/>
</clipPath>
</defs>
</svg>
